<svg xmlns="http://www.w3.org/2000/svg" xmlns:xlink="http://www.w3.org/1999/xlink" version="1.1" x="0px" y="0px" viewBox="0 0 4000 5000" style="enable-background:new 0 0 4000 4000;" xml:space="preserve">
    <g fill="white">
        <path d="M1000,2220v180c0,148.9,121.1,270,270,270h1530c31.7,0,61.7-6.5,90-16.6V2760c0,49.6-40.4,90-90,90H1630c-49.7,0-90,40.3-90,90s40.3,90,90,90h1170c148.9,0,270-121.1,270-270v-360V1320c0-148.9-121.1-270-270-270H1270c-148.9,0-270,121.1-270,270v180c-148.9,0-270,121.1-270,270v180C730,2098.9,851.1,2220,1000,2220z M1180,1320c0-49.6,40.4-90,90-90h1530c49.6,0,90,40.4,90,90v1080c0,49.6-40.4,90-90,90H1270c-49.6,0-90-40.4-90-90v-180h630c198.5,0,360-161.5,360-360s-161.5-360-360-360h-630V1320z M1630,1860c0-99.2,80.8-180,180-180s180,80.8,180,180s-80.8,180-180,180S1630,1959.2,1630,1860z M910,1770c0-49.6,40.4-90,90-90h500.1c-31,53.2-50.1,114.1-50.1,180s19.1,126.8,50.1,180H1000c-49.6,0-90-40.4-90-90V1770z"/>
    </g>
</svg>
